<svg width="24" height="25" viewBox="0 0 24 25" fill="none" xmlns="http://www.w3.org/2000/svg">
<path fill-rule="evenodd" clip-rule="evenodd" d="M3.72383 6.97956C4.60448 6.09918 5.79873 5.60461 7.04397 5.60461C8.2892 5.60461 9.48346 6.09918 10.3641 6.97956L11.7401 8.35434L13.116 6.97956C13.5492 6.53104 14.0674 6.17328 14.6403 5.92716C15.2133 5.68104 15.8295 5.55149 16.4531 5.54608C17.0766 5.54066 17.695 5.65948 18.2721 5.8956C18.8492 6.13172 19.3736 6.48042 19.8145 6.92135C20.2554 7.36228 20.6041 7.88661 20.8403 8.46374C21.0764 9.04088 21.1952 9.65926 21.1898 10.2828C21.1844 10.9063 21.0548 11.5226 20.8087 12.0955C20.5626 12.6684 20.2048 13.1866 19.7563 13.6198L11.7401 21.6372L3.72383 13.6198C2.84345 12.7392 2.34888 11.5449 2.34888 10.2997C2.34888 9.05446 2.84345 7.86021 3.72383 6.97956Z" fill="#5383E5" stroke="#5383E5" stroke-width="1.36969" stroke-linejoin="round"/>
</svg>
