<svg width="24" height="25" viewBox="0 0 24 25" fill="none" xmlns="http://www.w3.org/2000/svg">
<path fill-rule="evenodd" clip-rule="evenodd" d="M3.72395 6.97956C4.6046 6.09918 5.79885 5.60461 7.04409 5.60461C8.28933 5.60461 9.48358 6.09918 10.3642 6.97956L11.7402 8.35434L13.1161 6.97956C13.5493 6.53104 14.0675 6.17328 14.6405 5.92716C15.2134 5.68104 15.8296 5.55149 16.4532 5.54608C17.0767 5.54066 17.6951 5.65948 18.2722 5.8956C18.8494 6.13172 19.3737 6.48042 19.8146 6.92135C20.2556 7.36228 20.6043 7.88661 20.8404 8.46374C21.0765 9.04088 21.1953 9.65925 21.1899 10.2828C21.1845 10.9063 21.0549 11.5226 20.8088 12.0955C20.5627 12.6684 20.2049 13.1866 19.7564 13.6198L11.7402 21.6372L3.72395 13.6198C2.84357 12.7392 2.349 11.5449 2.349 10.2997C2.349 9.05446 2.84357 7.86021 3.72395 6.97956V6.97956Z" fill="white" stroke="#5383E5" stroke-width="1.36969" stroke-linejoin="round"/>
</svg>
